<?xml version="1.0" encoding="UTF-8" standalone="no"?>
<!-- Created with Inkscape (http://www.inkscape.org/) -->

<svg
   xmlns:dc="http://purl.org/dc/elements/1.1/"
   xmlns:cc="http://creativecommons.org/ns#"
   xmlns:rdf="http://www.w3.org/1999/02/22-rdf-syntax-ns#"
   xmlns:svg="http://www.w3.org/2000/svg"
   xmlns="http://www.w3.org/2000/svg"
   xmlns:sodipodi="http://sodipodi.sourceforge.net/DTD/sodipodi-0.dtd"
   xmlns:inkscape="http://www.inkscape.org/namespaces/inkscape"
   id="svg2"
   version="1.1"
   inkscape:version="0.48.3.1 r9886"
   width="134.8825"
   height="109.66625"
   xml:space="preserve"
   sodipodi:docname="triadExample.pdf"><metadata
     id="metadata8"><rdf:RDF><cc:Work
         rdf:about=""><dc:format>image/svg+xml</dc:format><dc:type
           rdf:resource="http://purl.org/dc/dcmitype/StillImage" /><dc:title></dc:title></cc:Work></rdf:RDF></metadata><defs
     id="defs6" /><sodipodi:namedview
     pagecolor="#ffffff"
     bordercolor="#666666"
     borderopacity="1"
     objecttolerance="10"
     gridtolerance="10"
     guidetolerance="10"
     inkscape:pageopacity="0"
     inkscape:pageshadow="2"
     inkscape:window-width="2003"
     inkscape:window-height="1196"
     id="namedview4"
     showgrid="false"
     inkscape:zoom="4.3039676"
     inkscape:cx="-42.679726"
     inkscape:cy="77.76194"
     inkscape:window-x="49"
     inkscape:window-y="24"
     inkscape:window-maximized="0"
     inkscape:current-layer="g10" /><g
     id="g10"
     inkscape:groupmode="layer"
     inkscape:label="triadExample"
     transform="matrix(1.25,0,0,-1.25,0,109.66625)"><path
       inkscape:connector-curvature="0"
       id="path14"
       style="fill:none;stroke:#000000;stroke-width:0.39850599;stroke-linecap:butt;stroke-linejoin:miter;stroke-miterlimit:10;stroke-opacity:1;stroke-dasharray:none"
       d="M 22.762,8.542 11.879,80.284 79.59,53.682 22.762,8.542 z" /><path
       inkscape:connector-curvature="0"
       id="path16"
       style="fill:#000000;fill-opacity:1;fill-rule:nonzero;stroke:none"
       d="m 23.133,44.213 c 0,-2.988 -2.422,-5.41 -5.41,-5.41 -2.989,0 -5.407,2.422 -5.407,5.41 0,2.985 2.418,5.407 5.407,5.407 2.988,0 5.41,-2.422 5.41,-5.407" /><path
       inkscape:connector-curvature="0"
       id="path18"
       style="fill:none;stroke:#000000;stroke-width:0.464946;stroke-linecap:butt;stroke-linejoin:miter;stroke-miterlimit:10;stroke-opacity:1;stroke-dasharray:none"
       d="m 23.133,44.213 c 0,-2.988 -2.422,-5.41 -5.41,-5.41 -2.989,0 -5.407,2.422 -5.407,5.41 0,2.985 2.418,5.407 5.407,5.407 2.988,0 5.41,-2.422 5.41,-5.407 z" /><path
       inkscape:connector-curvature="0"
       id="path20"
       style="fill:#000000;fill-opacity:1;fill-rule:nonzero;stroke:none"
       d="m 56.785,31.112 c 0,-2.984 -2.422,-5.406 -5.406,-5.406 -2.988,0 -5.41,2.422 -5.41,5.406 0,2.988 2.422,5.41 5.41,5.41 2.984,0 5.406,-2.422 5.406,-5.41" /><path
       inkscape:connector-curvature="0"
       id="path22"
       style="fill:none;stroke:#000000;stroke-width:0.464946;stroke-linecap:butt;stroke-linejoin:miter;stroke-miterlimit:10;stroke-opacity:1;stroke-dasharray:none"
       d="m 56.785,31.112 c 0,-2.984 -2.422,-5.406 -5.406,-5.406 -2.988,0 -5.41,2.422 -5.41,5.406 0,2.988 2.422,5.41 5.41,5.41 2.984,0 5.406,-2.422 5.406,-5.41 z" /><path
       inkscape:connector-curvature="0"
       id="path24"
       style="fill:#000000;fill-opacity:1;fill-rule:nonzero;stroke:none"
       d="m 51.145,66.983 c 0,-2.984 -2.422,-5.406 -5.411,-5.406 -2.988,0 -5.406,2.422 -5.406,5.406 0,2.988 2.418,5.41 5.406,5.41 2.989,0 5.411,-2.422 5.411,-5.41" /><path
       inkscape:connector-curvature="0"
       id="path26"
       style="fill:none;stroke:#000000;stroke-width:0.464946;stroke-linecap:butt;stroke-linejoin:miter;stroke-miterlimit:10;stroke-opacity:1;stroke-dasharray:none"
       d="m 51.145,66.983 c 0,-2.984 -2.422,-5.406 -5.411,-5.406 -2.988,0 -5.406,2.422 -5.406,5.406 0,2.988 2.418,5.41 5.406,5.41 2.989,0 5.411,-2.422 5.411,-5.41 z" /><path
       inkscape:connector-curvature="0"
       id="path28"
       style="fill:#000000;fill-opacity:1;fill-rule:nonzero;stroke:none"
       d="m 83.258,52.698 0.101,-0.617 c -0.199,-0.043 -0.375,-0.063 -0.531,-0.063 -0.254,0 -0.449,0.039 -0.594,0.117 -0.136,0.082 -0.238,0.188 -0.293,0.317 -0.058,0.133 -0.086,0.41 -0.086,0.828 l 0,2.379 -0.515,0 0,0.547 0.515,0 0,1.023 0.696,0.418 0,-1.441 0.707,0 0,-0.547 -0.707,0 0,-2.414 c 0,-0.203 0.011,-0.328 0.035,-0.387 0.027,-0.059 0.066,-0.102 0.121,-0.137 0.059,-0.035 0.137,-0.05 0.242,-0.05 0.078,0 0.18,0.007 0.309,0.027" /><path
       inkscape:connector-curvature="0"
       id="path30"
       style="fill:#000000;fill-opacity:1;fill-rule:nonzero;stroke:none"
       d="m 86.766,53.401 0.722,-0.09 c -0.113,-0.422 -0.324,-0.75 -0.633,-0.984 -0.308,-0.231 -0.703,-0.348 -1.183,-0.348 -0.606,0 -1.082,0.184 -1.438,0.555 -0.355,0.375 -0.531,0.898 -0.531,1.57 0,0.695 0.18,1.234 0.539,1.617 0.356,0.383 0.82,0.578 1.391,0.578 0.555,0 1.004,-0.187 1.355,-0.566 0.352,-0.375 0.524,-0.906 0.524,-1.586 0,-0.043 0,-0.105 0,-0.187 l -3.086,0 c 0.027,-0.454 0.156,-0.801 0.386,-1.043 0.231,-0.243 0.52,-0.364 0.864,-0.364 0.258,0 0.476,0.067 0.66,0.203 0.18,0.133 0.324,0.348 0.43,0.645 m -2.301,1.133 2.308,0 c -0.031,0.347 -0.117,0.609 -0.265,0.785 -0.223,0.269 -0.512,0.402 -0.867,0.402 -0.321,0 -0.59,-0.105 -0.813,-0.324 -0.219,-0.215 -0.34,-0.5 -0.363,-0.863" /><path
       inkscape:connector-curvature="0"
       id="path32"
       style="fill:#000000;fill-opacity:1;fill-rule:nonzero;stroke:none"
       d="m 91.07,52.581 c -0.258,-0.219 -0.508,-0.375 -0.75,-0.465 -0.238,-0.094 -0.496,-0.137 -0.769,-0.137 -0.457,0 -0.805,0.109 -1.047,0.328 -0.246,0.227 -0.367,0.508 -0.367,0.856 0,0.203 0.047,0.386 0.136,0.55 0.094,0.168 0.211,0.305 0.36,0.407 0.152,0.097 0.32,0.176 0.508,0.226 0.136,0.039 0.343,0.075 0.621,0.106 0.566,0.07 0.984,0.148 1.25,0.242 0.004,0.098 0.004,0.156 0.004,0.184 0,0.285 -0.067,0.488 -0.2,0.601 -0.179,0.16 -0.445,0.238 -0.796,0.238 -0.329,0 -0.575,-0.058 -0.731,-0.175 -0.156,-0.114 -0.273,-0.317 -0.348,-0.61 l -0.683,0.094 c 0.062,0.293 0.164,0.527 0.304,0.707 0.145,0.184 0.352,0.32 0.622,0.418 0.269,0.098 0.582,0.148 0.937,0.148 0.352,0 0.641,-0.043 0.859,-0.125 0.223,-0.086 0.383,-0.187 0.489,-0.316 0.101,-0.125 0.176,-0.281 0.215,-0.477 0.027,-0.117 0.035,-0.332 0.035,-0.644 l 0,-0.934 c 0,-0.652 0.015,-1.062 0.043,-1.238 0.031,-0.172 0.093,-0.336 0.179,-0.492 l -0.73,0 c -0.074,0.144 -0.121,0.312 -0.141,0.508 m -0.058,1.566 c -0.254,-0.105 -0.633,-0.191 -1.145,-0.266 -0.289,-0.043 -0.492,-0.089 -0.609,-0.14 -0.121,-0.051 -0.211,-0.129 -0.278,-0.231 -0.066,-0.097 -0.097,-0.207 -0.097,-0.332 0,-0.183 0.07,-0.34 0.211,-0.465 0.14,-0.125 0.351,-0.187 0.621,-0.187 0.269,0 0.512,0.059 0.723,0.176 0.207,0.121 0.363,0.281 0.46,0.484 0.075,0.16 0.114,0.395 0.114,0.703 l 0,0.258" /><path
       inkscape:connector-curvature="0"
       id="path34"
       style="fill:#000000;fill-opacity:1;fill-rule:nonzero;stroke:none"
       d="m 95.508,53.585 0.687,-0.09 c -0.074,-0.473 -0.269,-0.848 -0.578,-1.117 -0.308,-0.266 -0.691,-0.399 -1.14,-0.399 -0.567,0 -1.024,0.184 -1.368,0.551 -0.343,0.371 -0.511,0.902 -0.511,1.594 0,0.445 0.074,0.836 0.218,1.172 0.149,0.332 0.375,0.582 0.676,0.75 0.305,0.167 0.633,0.253 0.988,0.253 0.45,0 0.817,-0.117 1.102,-0.343 0.285,-0.227 0.469,-0.547 0.547,-0.965 l -0.68,-0.106 c -0.066,0.278 -0.179,0.485 -0.347,0.625 -0.164,0.141 -0.364,0.211 -0.594,0.211 -0.356,0 -0.641,-0.129 -0.86,-0.383 -0.222,-0.25 -0.332,-0.648 -0.332,-1.195 0,-0.555 0.106,-0.961 0.321,-1.211 0.211,-0.254 0.488,-0.379 0.832,-0.379 0.273,0 0.504,0.086 0.687,0.254 0.184,0.168 0.301,0.43 0.352,0.778" /><path
       inkscape:connector-curvature="0"
       id="path36"
       style="fill:#000000;fill-opacity:1;fill-rule:nonzero;stroke:none"
       d="m 96.797,52.073 0,5.703 0.699,0 0,-2.047 c 0.324,0.379 0.738,0.57 1.238,0.57 0.305,0 0.571,-0.062 0.797,-0.183 0.227,-0.121 0.387,-0.285 0.481,-0.5 0.101,-0.211 0.148,-0.52 0.148,-0.926 l 0,-2.617 -0.699,0 0,2.617 c 0,0.352 -0.078,0.606 -0.231,0.762 -0.148,0.164 -0.363,0.242 -0.64,0.242 -0.207,0 -0.402,-0.055 -0.59,-0.164 -0.18,-0.106 -0.309,-0.25 -0.387,-0.434 -0.078,-0.183 -0.117,-0.441 -0.117,-0.765 l 0,-2.258 -0.699,0" /><path
       inkscape:connector-curvature="0"
       id="path38"
       style="fill:#000000;fill-opacity:1;fill-rule:nonzero;stroke:none"
       d="m 104.062,53.401 0.723,-0.09 c -0.113,-0.422 -0.324,-0.75 -0.637,-0.984 -0.308,-0.231 -0.703,-0.348 -1.179,-0.348 -0.606,0 -1.086,0.184 -1.442,0.555 -0.351,0.375 -0.531,0.898 -0.531,1.57 0,0.695 0.18,1.234 0.539,1.617 0.36,0.383 0.824,0.578 1.395,0.578 0.55,0 1.004,-0.187 1.351,-0.566 0.352,-0.375 0.528,-0.906 0.528,-1.586 0,-0.043 -0.004,-0.105 -0.004,-0.187 l -3.082,0 c 0.023,-0.454 0.152,-0.801 0.382,-1.043 0.235,-0.243 0.52,-0.364 0.868,-0.364 0.254,0 0.472,0.067 0.656,0.203 0.18,0.133 0.324,0.348 0.433,0.645 m -2.3,1.133 2.304,0 c -0.031,0.347 -0.117,0.609 -0.261,0.785 -0.223,0.269 -0.516,0.402 -0.867,0.402 -0.325,0 -0.594,-0.105 -0.817,-0.324 -0.215,-0.215 -0.336,-0.5 -0.359,-0.863" /><path
       inkscape:connector-curvature="0"
       id="path40"
       style="fill:#000000;fill-opacity:1;fill-rule:nonzero;stroke:none"
       d="m 105.66,52.073 0,4.133 0.629,0 0,-0.629 c 0.16,0.293 0.309,0.488 0.445,0.582 0.137,0.094 0.289,0.14 0.454,0.14 0.234,0 0.472,-0.078 0.718,-0.226 l -0.242,-0.652 c -0.172,0.101 -0.344,0.152 -0.516,0.152 -0.152,0 -0.289,-0.047 -0.41,-0.141 -0.121,-0.09 -0.211,-0.215 -0.261,-0.379 -0.079,-0.25 -0.118,-0.523 -0.118,-0.816 l 0,-2.164 -0.699,0" /><path
       inkscape:connector-curvature="0"
       id="path42"
       style="fill:#000000;fill-opacity:1;fill-rule:nonzero;stroke:none"
       d="m 2.91,85.022 0.692,-0.09 C 3.523,84.456 3.332,84.085 3.02,83.815 2.711,83.546 2.332,83.413 1.879,83.413 c -0.567,0 -1.02,0.183 -1.363,0.554 C 0.172,84.338 0,84.866 0,85.557 c 0,0.446 0.074,0.836 0.223,1.172 0.148,0.336 0.371,0.586 0.672,0.75 0.304,0.168 0.632,0.254 0.988,0.254 0.449,0 0.816,-0.113 1.101,-0.344 0.286,-0.222 0.469,-0.547 0.551,-0.965 L 2.852,86.319 c -0.063,0.277 -0.18,0.488 -0.344,0.629 -0.164,0.14 -0.363,0.211 -0.598,0.211 -0.351,0 -0.64,-0.129 -0.859,-0.383 -0.223,-0.254 -0.332,-0.652 -0.332,-1.199 0,-0.555 0.105,-0.957 0.32,-1.211 0.215,-0.25 0.488,-0.375 0.832,-0.375 0.277,0 0.508,0.082 0.691,0.25 0.184,0.172 0.297,0.43 0.348,0.781" /><path
       inkscape:connector-curvature="0"
       id="path44"
       style="fill:#000000;fill-opacity:1;fill-rule:nonzero;stroke:none"
       d="m 6.906,83.506 0,0.61 C 6.586,83.647 6.148,83.413 5.598,83.413 5.352,83.413 5.125,83.46 4.91,83.553 4.699,83.647 4.543,83.764 4.441,83.905 4.34,84.046 4.27,84.221 4.227,84.424 4.199,84.561 4.184,84.78 4.184,85.081 l 0,2.558 0.699,0 0,-2.293 c 0,-0.367 0.015,-0.609 0.043,-0.738 0.047,-0.184 0.136,-0.328 0.281,-0.437 0.145,-0.102 0.32,-0.157 0.527,-0.157 0.211,0 0.411,0.055 0.594,0.16 0.184,0.11 0.313,0.258 0.391,0.442 0.078,0.187 0.117,0.457 0.117,0.808 l 0,2.215 0.699,0 0,-4.133 -0.629,0" /><path
       inkscape:connector-curvature="0"
       id="path46"
       style="fill:#000000;fill-opacity:1;fill-rule:nonzero;stroke:none"
       d="m 8.637,81.921 0,5.718 0.636,0 0,-0.535 c 0.153,0.207 0.321,0.363 0.508,0.469 0.192,0.105 0.422,0.16 0.692,0.16 0.351,0 0.664,-0.09 0.933,-0.273 0.27,-0.18 0.473,-0.438 0.61,-0.77 0.14,-0.328 0.207,-0.691 0.207,-1.086 0,-0.422 -0.075,-0.805 -0.231,-1.144 -0.148,-0.336 -0.371,-0.598 -0.66,-0.778 -0.289,-0.179 -0.59,-0.269 -0.91,-0.269 -0.234,0 -0.445,0.05 -0.633,0.148 -0.184,0.098 -0.336,0.223 -0.453,0.375 l 0,-2.015 -0.699,0 m 0.633,3.628 c 0,-0.531 0.109,-0.925 0.324,-1.179 0.215,-0.254 0.476,-0.379 0.781,-0.379 0.313,0 0.578,0.129 0.797,0.39 0.223,0.266 0.336,0.672 0.336,1.227 0,0.527 -0.11,0.922 -0.328,1.184 -0.215,0.261 -0.473,0.39 -0.774,0.39 -0.297,0 -0.562,-0.136 -0.793,-0.418 C 9.383,86.487 9.27,86.081 9.27,85.549" /><path
       inkscape:connector-curvature="0"
       id="path48"
       style="fill:#000000;fill-opacity:1;fill-rule:nonzero;stroke:none"
       d="m 16.066,0.092 0,5.707 0.7,0 0,-2.046 c 0.328,0.378 0.742,0.566 1.238,0.566 0.305,0 0.57,-0.059 0.797,-0.184 0.226,-0.117 0.387,-0.285 0.484,-0.496 0.098,-0.215 0.149,-0.523 0.149,-0.926 l 0,-2.621 -0.704,0 0,2.621 c 0,0.348 -0.074,0.606 -0.226,0.762 -0.152,0.16 -0.367,0.242 -0.645,0.242 -0.207,0 -0.402,-0.054 -0.586,-0.164 C 17.09,3.448 16.961,3.299 16.883,3.116 16.805,2.932 16.766,2.678 16.766,2.354 l 0,-2.262 -0.7,0" /><path
       inkscape:connector-curvature="0"
       id="path50"
       style="fill:#000000;fill-opacity:1;fill-rule:nonzero;stroke:none"
       d="M 23.199,0.604 C 22.941,0.381 22.691,0.225 22.449,0.135 22.211,0.046 21.953,-0.001 21.676,-0.001 c -0.453,0 -0.801,0.113 -1.043,0.332 -0.246,0.222 -0.367,0.507 -0.367,0.851 0,0.203 0.043,0.387 0.136,0.555 0.094,0.168 0.211,0.301 0.36,0.402 0.152,0.102 0.32,0.18 0.508,0.231 0.136,0.035 0.343,0.07 0.621,0.105 0.566,0.067 0.984,0.149 1.25,0.242 0.004,0.094 0.004,0.157 0.004,0.18 0,0.289 -0.067,0.488 -0.2,0.606 -0.179,0.16 -0.445,0.238 -0.797,0.238 -0.328,0 -0.574,-0.059 -0.73,-0.176 C 21.262,3.452 21.145,3.249 21.07,2.956 l -0.683,0.09 c 0.062,0.292 0.164,0.531 0.304,0.71 0.145,0.18 0.352,0.321 0.621,0.415 0.27,0.101 0.583,0.148 0.938,0.148 0.352,0 0.641,-0.039 0.859,-0.125 0.219,-0.082 0.383,-0.188 0.489,-0.313 0.101,-0.125 0.175,-0.285 0.214,-0.476 0.028,-0.117 0.036,-0.332 0.036,-0.645 l 0,-0.933 c 0,-0.653 0.015,-1.067 0.043,-1.239 0.031,-0.171 0.093,-0.335 0.179,-0.496 l -0.73,0 C 23.266,0.241 23.219,0.409 23.199,0.604 M 23.141,2.167 C 22.887,2.065 22.504,1.975 21.996,1.905 21.711,1.862 21.504,1.815 21.387,1.764 21.266,1.71 21.176,1.635 21.109,1.534 21.047,1.436 21.012,1.323 21.012,1.202 c 0,-0.188 0.07,-0.34 0.211,-0.465 0.14,-0.125 0.347,-0.188 0.621,-0.188 0.269,0 0.511,0.059 0.722,0.176 0.207,0.117 0.364,0.281 0.461,0.485 0.075,0.16 0.114,0.39 0.114,0.703 l 0,0.254" /><path
       inkscape:connector-curvature="0"
       id="path52"
       style="fill:#000000;fill-opacity:1;fill-rule:nonzero;stroke:none"
       d="m 24.941,4.995 0,0.804 0.704,0 0,-0.804 -0.704,0 m 0,-4.903 0,4.133 0.704,0 0,-4.133 -0.704,0" /><path
       inkscape:connector-curvature="0"
       id="path54"
       style="fill:#000000;fill-opacity:1;fill-rule:nonzero;stroke:none"
       d="m 26.699,5.799 0.699,0 0,-5.707 -0.699,0 0,5.707 z" /><text
       xml:space="preserve"
       style="font-size:16.79999924px;font-style:normal;font-variant:normal;font-weight:normal;font-stretch:normal;text-align:start;line-height:125%;letter-spacing:0px;word-spacing:0px;writing-mode:lr-tb;text-anchor:start;fill:#000000;fill-opacity:1;stroke:none;font-family:Droid Sans;-inkscape-font-specification:Droid Sans"
       x="50.938717"
       y="-28.599155"
       id="text3031"
       sodipodi:linespacing="125%"
       transform="scale(1,-1)"><tspan
         sodipodi:role="line"
         id="tspan3033"
         x="50.938717"
         y="-28.599155"
         style="font-size:9.60000038px;font-weight:normal;fill:#ffffff;fill-opacity:1;-inkscape-font-specification:Droid Sans">J</tspan></text>
<text
       xml:space="preserve"
       style="font-size:16.79999924px;font-style:normal;font-variant:normal;font-weight:normal;font-stretch:normal;text-align:start;line-height:125%;letter-spacing:0px;word-spacing:0px;writing-mode:lr-tb;text-anchor:start;fill:#000000;fill-opacity:1;stroke:none;font-family:Droid Sans;-inkscape-font-specification:Droid Sans"
       x="14.478406"
       y="-40.784939"
       id="text3031-1"
       sodipodi:linespacing="125%"
       transform="scale(1,-1)"><tspan
         sodipodi:role="line"
         id="tspan3033-0"
         x="14.478406"
         y="-40.784939"
         style="font-size:9.60000038px;font-weight:normal;fill:#ffffff;fill-opacity:1;-inkscape-font-specification:Droid Sans">K</tspan></text>
<text
       xml:space="preserve"
       style="font-size:16.79999924px;font-style:normal;font-variant:normal;font-weight:normal;font-stretch:normal;text-align:start;line-height:125%;letter-spacing:0px;word-spacing:0px;writing-mode:lr-tb;text-anchor:start;fill:#000000;fill-opacity:1;stroke:none;font-family:Droid Sans;-inkscape-font-specification:Droid Sans"
       x="43.02478"
       y="-63.558437"
       id="text3031-14"
       sodipodi:linespacing="125%"
       transform="scale(1,-1)"><tspan
         sodipodi:role="line"
         id="tspan3033-5"
         x="43.02478"
         y="-63.558437"
         style="font-size:9.60000038px;font-weight:normal;fill:#ffffff;fill-opacity:1;-inkscape-font-specification:Droid Sans">L</tspan></text>
</g></svg>